<svg width="180" height="180" viewBox="0 0 180 180" fill="none" xmlns="http://www.w3.org/2000/svg">
  <rect width="180" height="180" rx="36" fill="#F8F3E6"/>
  <path d="M101.7 30.8C70.7 38.4 48 62.4 42.9 92.8c-4.1 24.4 7.9 45.7 29.5 52.2 27.7 8.3 55.7-9.4 65.1-41.2 8.2-27.8-2.5-55.4-35.8-73Z" fill="#42542B"/>
  <path d="M54 129c23.5-34.7 51.6-58.3 82-73" stroke="#F8F3E6" stroke-width="9" stroke-linecap="round"/>
  <path d="M73 103c-5.1-10.6-7.1-21.5-6.1-32.4M91 84c-.9-11.2.8-21.6 5.2-31M104 75c8.2 2.2 16.2 5.9 23.8 11" stroke="#F8F3E6" stroke-width="6" stroke-linecap="round"/>
</svg>
